{
	"asset":{
		"generator":"Khronos glTF Blender I/O v4.2.70",
		"version":"2.0"
	},
	"scene":0,
	"scenes":[
		{
			"name":"Scene",
			"nodes":[
				9
			]
		}
	],
	"nodes":[
		{
			"mesh":0,
			"name":"Cylinder.003",
			"rotation":[
				0,
				-1.1920928955078125e-07,
				0,
				1
			],
			"scale":[
				1,
				1.0000001192092896,
				1
			],
			"translation":[
				0,
				1.9999990463256836,
				0
			]
		},
		{
			"mesh":1,
			"name":"Sphere",
			"rotation":[
				0,
				-1.1920928955078125e-07,
				0,
				1
			],
			"scale":[
				1,
				1.0000001192092896,
				1
			],
			"translation":[
				0,
				3.9999990463256836,
				0
			]
		},
		{
			"children":[
				0,
				1
			],
			"name":"Bone.003",
			"translation":[
				0,
				4.000000953674316,
				0
			]
		},
		{
			"mesh":0,
			"name":"Cylinder.002",
			"rotation":[
				0,
				-1.1920928955078125e-07,
				0,
				1
			],
			"scale":[
				1,
				1.0000001192092896,
				1
			],
			"translation":[
				0,
				2.0000014305114746,
				0
			]
		},
		{
			"children":[
				2,
				3
			],
			"name":"Bone.002",
			"rotation":[
				0,
				1.4210854715202004e-14,
				0,
				1
			],
			"translation":[
				0,
				3.700000047683716,
				0
			]
		},
		{
			"mesh":0,
			"name":"Cylinder.001",
			"rotation":[
				0,
				-1.1920928244535389e-07,
				0,
				1
			],
			"scale":[
				1,
				1.0000001192092896,
				1
			],
			"translation":[
				0,
				1.7000001668930054,
				0
			]
		},
		{
			"children":[
				4,
				5
			],
			"name":"Bone.001",
			"rotation":[
				0,
				1.1920927533992653e-07,
				0,
				1
			],
			"scale":[
				1,
				0.9999999403953552,
				1
			],
			"translation":[
				0,
				0.30000001192092896,
				0
			]
		},
		{
			"mesh":2,
			"name":"Cylinder"
		},
		{
			"children":[
				6,
				7
			],
			"name":"Bone"
		},
		{
			"children":[
				8
			],
			"name":"Armature"
		}
	],
	"meshes":[
		{
			"name":"Cylinder.001",
			"primitives":[
				{
					"attributes":{
						"POSITION":0,
						"NORMAL":1,
						"TEXCOORD_0":2
					},
					"indices":3
				}
			]
		},
		{
			"name":"Sphere",
			"primitives":[
				{
					"attributes":{
						"POSITION":4,
						"NORMAL":5,
						"TEXCOORD_0":6
					},
					"indices":7
				}
			]
		},
		{
			"name":"Cylinder",
			"primitives":[
				{
					"attributes":{
						"POSITION":8,
						"NORMAL":9,
						"TEXCOORD_0":10
					},
					"indices":3
				}
			]
		}
	],
	"skins":[
		{
			"inverseBindMatrices":11,
			"joints":[
				8,
				6,
				4,
				2
			],
			"name":"Armature"
		}
	],
	"accessors":[
		{
			"bufferView":0,
			"componentType":5126,
			"count":192,
			"max":[
				0.20000004768371582,
				2,
				0.19999998807907104
			],
			"min":[
				-0.19999998807907104,
				-2,
				-0.19999998807907104
			],
			"type":"VEC3"
		},
		{
			"bufferView":1,
			"componentType":5126,
			"count":192,
			"type":"VEC3"
		},
		{
			"bufferView":2,
			"componentType":5126,
			"count":192,
			"type":"VEC2"
		},
		{
			"bufferView":3,
			"componentType":5123,
			"count":372,
			"type":"SCALAR"
		},
		{
			"bufferView":4,
			"componentType":5126,
			"count":1984,
			"max":[
				0.49999985098838806,
				0.5000004768371582,
				0.49999964237213135
			],
			"min":[
				-0.4999995231628418,
				-0.4999995231628418,
				-0.5
			],
			"type":"VEC3"
		},
		{
			"bufferView":5,
			"componentType":5126,
			"count":1984,
			"type":"VEC3"
		},
		{
			"bufferView":6,
			"componentType":5126,
			"count":1984,
			"type":"VEC2"
		},
		{
			"bufferView":7,
			"componentType":5123,
			"count":2880,
			"type":"SCALAR"
		},
		{
			"bufferView":8,
			"componentType":5126,
			"count":192,
			"max":[
				1,
				0.33558833599090576,
				1
			],
			"min":[
				-1,
				0,
				-1
			],
			"type":"VEC3"
		},
		{
			"bufferView":9,
			"componentType":5126,
			"count":192,
			"type":"VEC3"
		},
		{
			"bufferView":10,
			"componentType":5126,
			"count":192,
			"type":"VEC2"
		},
		{
			"bufferView":11,
			"componentType":5126,
			"count":4,
			"type":"MAT4"
		}
	],
	"bufferViews":[
		{
			"buffer":0,
			"byteLength":2304,
			"byteOffset":0,
			"target":34962
		},
		{
			"buffer":0,
			"byteLength":2304,
			"byteOffset":2304,
			"target":34962
		},
		{
			"buffer":0,
			"byteLength":1536,
			"byteOffset":4608,
			"target":34962
		},
		{
			"buffer":0,
			"byteLength":744,
			"byteOffset":6144,
			"target":34963
		},
		{
			"buffer":0,
			"byteLength":23808,
			"byteOffset":6888,
			"target":34962
		},
		{
			"buffer":0,
			"byteLength":23808,
			"byteOffset":30696,
			"target":34962
		},
		{
			"buffer":0,
			"byteLength":15872,
			"byteOffset":54504,
			"target":34962
		},
		{
			"buffer":0,
			"byteLength":5760,
			"byteOffset":70376,
			"target":34963
		},
		{
			"buffer":0,
			"byteLength":2304,
			"byteOffset":76136,
			"target":34962
		},
		{
			"buffer":0,
			"byteLength":2304,
			"byteOffset":78440,
			"target":34962
		},
		{
			"buffer":0,
			"byteLength":1536,
			"byteOffset":80744,
			"target":34962
		},
		{
			"buffer":0,
			"byteLength":256,
			"byteOffset":82280
		}
	],
	"buffers":[
		{
			"byteLength":82536,
			"uri":"robot_arm.bin"
		}
	]
}
